# Alias Wavefront OBJ File Exported from SketchUp
# with OBJexporter (c) 2010-2011 TIG
# Units = meters

mtllib leaf.mtl

g fs-COM-Component_1-2628-Vegetation_Blur7
usemtl Vegetation_Blur7
v -2.133367 1.534414 -0.616417
v -2.658259 1.464056 -0.150581
v -2.355470 1.504643 0.118141
v -1.239224 1.490662 -0.863940
v -2.069307 1.531282 -0.520530
v -1.369589 1.497076 0.526837
v -1.369589 1.497076 0.526837
v -2.355470 1.504643 0.118141
v -2.133367 1.534414 0.315255
v -1.239224 1.490662 -0.863940
v -1.369589 1.497076 -0.827999
v -2.133367 1.534414 -0.616417
v -1.239224 1.490662 -0.863940
v -2.133367 1.534414 -0.616417
v -2.069307 1.531282 -0.520530
v -1.369589 1.497076 0.526837
v -2.133367 1.534414 -0.616417
v -2.355470 1.504643 0.118141
v -2.069307 1.531282 -0.520530
v -1.108858 1.484249 0.598973
v -0.991028 1.386659 0.003153
v -1.369589 1.497076 0.526837
v -0.240559 1.167765 -1.035009
v -0.612467 1.276242 -0.520530
v -0.240559 1.167765 -1.035009
v -1.108858 1.484249 -0.899881
v -0.612467 1.276242 -0.520530
v -0.991028 1.386659 0.003153
v -1.239224 1.490662 -0.863940
v -1.369589 1.497076 0.526837
v -0.612467 1.276242 -0.520530
v -1.108858 1.484249 -0.899881
v -0.991028 1.386659 0.003153
v -0.991028 1.386659 0.003153
v -1.108858 1.484249 -0.899881
v -1.239224 1.490662 -0.863940
v 0.334497 0.886206 -0.899881
v -0.240559 1.167765 -1.035009
v -1.108858 1.484249 0.598973
v 0.334497 0.886206 -0.899881
v -1.108858 1.484249 0.598973
v -0.240559 1.167765 0.733847
v 0.334497 0.886206 -0.899881
v -0.240559 1.167765 0.733847
v 0.334497 0.886206 0.598973
v 0.334497 0.886206 -0.899881
v 0.334497 0.886206 0.598973
v 1.124563 0.000000 -0.150581
vn -0.132855 0.991135 -0.000000
vn -0.132855 0.991135 -0.000000
vn -0.132855 0.991135 -0.000000
vn 0.048866 0.998805 -0.000025
vn 0.048866 0.998805 -0.000025
vn 0.048866 0.998805 -0.000025
vn 0.125349 0.950363 -0.284778
vn 0.125349 0.950363 -0.284778
vn 0.125349 0.950363 -0.284778
vn 0.110056 0.967773 0.226502
vn 0.110056 0.967773 0.226502
vn 0.110056 0.967773 0.226502
vn 0.048866 0.998805 -0.000025
vn 0.048866 0.998805 -0.000025
vn 0.048866 0.998805 -0.000025
vn -0.008104 0.999243 0.038049
vn -0.008104 0.999243 0.038049
vn -0.008104 0.999243 0.038049
vn -0.008104 0.999243 0.038049
vn 0.088322 0.985632 -0.143972
vn 0.088322 0.985632 -0.143972
vn 0.088322 0.985632 -0.143972
vn 0.088322 0.985632 -0.143972
vn 0.088322 0.985632 -0.143972
vn 0.349530 0.935282 0.055468
vn 0.349530 0.935282 0.055468
vn 0.349530 0.935282 0.055468
vn 0.311398 0.949956 0.024808
vn 0.311398 0.949956 0.024808
vn 0.311398 0.949956 0.024808
vn 0.349530 0.935282 0.055468
vn 0.349530 0.935282 0.055468
vn 0.349530 0.935282 0.055468
vn 0.075666 0.992368 0.097371
vn 0.075666 0.992368 0.097371
vn 0.075666 0.992368 0.097371
vn 0.428983 0.901738 0.053305
vn 0.428983 0.901738 0.053305
vn 0.428983 0.901738 0.053305
vn 0.347546 0.936846 -0.039125
vn 0.347546 0.936846 -0.039125
vn 0.347546 0.936846 -0.039125
vn 0.439740 0.898125 0.000000
vn 0.439740 0.898125 0.000000
vn 0.439740 0.898125 0.000000
vn 0.746435 0.665459 -0.000000
vn 0.746435 0.665459 -0.000000
vn 0.746435 0.665459 -0.000000
vt -4.430001 2.375629
vt -2.901667 0.638144
vt -2.020032 1.640432
vt 5.239654 -4.413810
vt 4.114399 -1.686594
vt 0.676961 -3.983208
vt -3.596033 -0.681245
vt -0.095425 -0.601458
vt -1.022890 -0.287538
vt 6.478450 3.825495
vt 6.042217 3.909052
vt 3.484984 4.395501
vt 5.239654 -4.413810
vt 4.429101 -1.476336
vt 4.114399 -1.686594
vt 3.993692 1.734888
vt 0.761494 4.883833
vt 0.550817 2.373040
vt 1.032587 4.619723
vt -4.101579 -2.169213
vt -3.408915 -4.064831
vt -3.248678 -1.920057
vt -3.726575 -8.316685
vt -3.569153 -6.209605
vt 6.974811 -5.120459
vt 6.090471 -2.186520
vt 5.116508 -4.114835
vt 2.824116 -3.577744
vt 5.595259 -2.485439
vt 1.012787 -2.418081
vt 5.116508 -4.114835
vt 6.090471 -2.186520
vt 3.224962 -3.091221
vt 5.790116 -0.891214
vt 7.302781 1.705220
vt 6.892701 1.875855
vt 6.529858 -6.933504
vt 6.737160 -4.796592
vt 1.065956 -2.394613
vt 4.227955 -8.685792
vt -0.128938 -3.075692
vt -0.887343 -6.044553
vt 5.360000 -7.539922
vt 0.000000 -5.439249
vt 0.442500 -7.539922
vt 5.360000 -4.363713
vt 0.442500 -4.363713
vt 2.901667 -8.258896
f 1/1/1 2/2/2 3/3/3
f 4/4/4 5/5/5 6/6/6
f 7/7/7 8/8/8 9/9/9
f 10/10/10 11/11/11 12/12/12
f 13/13/13 14/14/14 15/15/15
f 16/16/16 17/17/17 18/18/18
f 17/17/17 16/16/16 19/19/19
f 20/20/20 21/21/21 22/22/22
f 21/21/21 20/20/20 23/23/23
f 21/21/21 23/23/23 24/24/24
f 25/25/25 26/26/26 27/27/27
f 28/28/28 29/29/29 30/30/30
f 31/31/31 32/32/32 33/33/33
f 34/34/34 35/35/35 36/36/36
f 37/37/37 38/38/38 39/39/39
f 40/40/40 41/41/41 42/42/42
f 43/43/43 44/44/44 45/45/45
f 46/46/46 47/47/47 48/48/48

